<?xml version="1.0" standalone="no"?>
<!DOCTYPE svg PUBLIC "-//W3C//DTD SVG 20010904//EN"
 "http://www.w3.org/TR/2001/REC-SVG-20010904/DTD/svg10.dtd">
<svg version="1.0" xmlns="http://www.w3.org/2000/svg"
 width="352.000000pt" height="352.000000pt" viewBox="0 0 352.000000 352.000000"
 preserveAspectRatio="xMidYMid meet">
<metadata>
Created by potrace 1.11, written by Peter Selinger 2001-2013
</metadata>
<g transform="translate(0.000000,352.000000) scale(0.100000,-0.100000)"
fill="#000000" stroke="none">
<path d="M624 2714 c-154 -158 -308 -317 -343 -353 -35 -36 -90 -93 -123 -127
l-59 -61 38 -45 c21 -24 61 -71 88 -103 28 -32 77 -91 110 -130 105 -126 659
-780 665 -785 3 -3 52 -61 110 -130 57 -69 107 -127 110 -130 3 -3 41 -48 85
-100 44 -52 82 -97 85 -100 3 -3 25 -30 50 -60 25 -30 53 -64 63 -75 10 -11
66 -77 125 -148 l107 -127 25 28 c14 15 48 54 75 86 28 33 64 75 81 95 18 20
80 92 139 161 59 69 119 139 134 155 14 17 107 124 205 240 99 116 184 215
190 220 6 6 36 39 66 75 30 36 67 78 81 95 15 16 88 102 164 190 75 88 149
174 163 190 15 17 69 80 121 140 52 61 119 139 150 174 31 35 59 69 63 75 5 8
-140 159 -406 424 l-414 412 -835 0 -834 0 -279 -286z"/>
</g>
</svg>
